<?xml version="1.0" encoding="utf-8"?>
<!-- Generator: Adobe Illustrator 25.2.3, SVG Export Plug-In . SVG Version: 6.00 Build 0)  -->
<svg version="1.1" id="Layer_1" xmlns="http://www.w3.org/2000/svg" xmlns:xlink="http://www.w3.org/1999/xlink" x="0px" y="0px"
	 viewBox="0 0 860.2 538.5" style="enable-background:new 0 0 860.2 538.5;" xml:space="preserve">
<style type="text/css">
	.st0{fill:none;}
	.st1{fill:#505050;}
</style>
<g>
	<rect class="st0" width="860.2" height="538.5"/>
</g>
<g>
	<g>
		<g>
			<polygon class="st1" points="303.4,239.8 303.4,297.7 327.6,297.7 327.6,201.7 			"/>
			<polygon class="st1" points="400.9,249 350.9,165.2 336.2,188.1 401.7,297.7 425.2,297.7 425.2,125.1 400.9,125.1 			"/>
		</g>
		<g>
			<path class="st1" d="M62.9,297.2V133.8H103c22.4,0,41.8,7.9,57.8,23.9s23.9,35.2,23.9,57.6s-7.9,41.8-23.9,57.8
				c-16,16-35.3,23.9-57.8,23.9L62.9,297.2L62.9,297.2z M77.8,282.4H103c18.5,0,34.2-6.6,47.2-19.6s19.6-28.7,19.6-47.2
				s-6.6-34.2-19.6-47.2c-13-13-28.7-19.6-47.2-19.6H77.8V282.4z"/>
			<polygon class="st1" points="248.1,282.2 213.4,282.2 213.4,223 267.4,223 267.4,207.9 213.4,207.9 213.4,148.9 281.7,148.9 
				281.7,133.8 198.4,133.8 198.4,297.2 238.5,297.2 			"/>
		</g>
		<path class="st1" d="M535.6,238.6c0,10.2-3.5,18.6-10.7,25.9c-7.3,7.3-15.8,10.9-25.9,10.9c-10.2,0-18.6-3.5-25.9-10.7
			c-7.3-7.3-10.7-15.8-10.7-25.9V125.6H438v113.2c0,16.7,5.9,31.2,17.8,43.1s26.4,17.8,43.1,17.8s31.2-5.9,43.1-17.8
			c11.9-11.9,17.8-26.4,17.8-43.1V125.6h-24.3L535.6,238.6L535.6,238.6z"/>
		<g>
			<path class="st1" d="M676.7,131.4c-10.7,4.3-20.6,10.9-29.4,19.6c-17.2,17.2-25.7,38.1-25.7,62.2c0,1.8,0,3.5,0.2,5.3
				L676.7,131.4z"/>
			<path class="st1" d="M771.6,151c-17.2-17-38.1-25.7-62.2-25.7h-0.2l-16.7,26.4c5.3-1.3,10.9-2.1,16.8-2.1
				c17.7,0,32.3,6.1,44.9,18.6c12.5,12.5,18.6,27.2,18.6,44.9s-6.1,32.3-18.6,44.9c-12.5,12.5-27.2,18.6-44.9,18.6
				s-32.3-6.1-44.9-18.6c-9.9-9.9-15.7-21-17.8-33.8l-16.8,26.7c4.3,8.7,10.1,17,17.5,24.4c17,17.2,38,25.7,62.1,25.7
				c24.1,0,45.1-8.7,62.2-25.7c17-17,25.7-38,25.7-62.1C797.3,189.1,788.6,168.2,771.6,151z"/>
		</g>
		<path class="st1" d="M749.8,61.1L629.2,243.4c-0.5-1.3-1-2.6-1.5-4L733,72.4L626,234c-0.5-1.7-0.8-3.5-1.3-5.3l92.6-143.9
			l-93.6,138.3c-0.3-2.5-0.7-5.1-0.8-7.8l-26.6,43.1v-132H572V299h27.2l3.6-5.9L749.8,61.1z"/>
		<g>
			<path class="st1" d="M188.8,394.9c0,0,3.3-5.3,9.1-14.5c5.8-9.2,14.2-22.3,24.3-38.1c10.1-15.7,21.8-34,34.5-53.6
				c12.7-19.6,26.2-40.4,39.8-61.4c13.5-20.8,27.2-41.8,39.9-61.2c12.9-19.5,24.8-37.6,35.2-53.3c10.4-15.5,19-28.6,24.9-37.6
				c6.1-9.1,9.6-14.2,9.6-14.2s-3.3,5.3-9.1,14.5c-5.8,9.2-14.2,22.3-24.3,38.1c-10.1,15.7-21.8,34-34.5,53.6s-26.2,40.4-39.8,61.4
				c-13.5,20.8-27.2,41.8-39.9,61.2c-12.9,19.5-24.8,37.6-35.2,53.3c-10.4,15.5-19,28.6-24.9,37.6
				C192.3,389.8,188.8,394.9,188.8,394.9z"/>
		</g>
	</g>
	<g>
		<g>
			<path class="st1" d="M438.8,449.9c3.1-1.5,6.4-2.3,9.9-2.3c3.5,0,5.9,1.2,7.3,3.3c1.3,2.1,2,5.9,2,11.2c0,5.3-0.8,9.1-2.6,11.4
				c-1.8,2.3-5.1,3.3-10.2,3.3c-2.6,0-5-0.2-7.1-0.3l-1.3-0.2v-41.1h2L438.8,449.9L438.8,449.9L438.8,449.9z M438.8,474.6
				c3,0.2,5.3,0.3,7.1,0.3c1.8,0,3.5-0.2,5-0.7c1.5-0.5,2.5-1.3,3.3-2.5c0.8-1.2,1.3-2.5,1.5-4c0.2-1.5,0.3-3.5,0.3-5.9
				c0-4.5-0.5-7.6-1.5-9.6c-1-1.8-3-2.8-5.9-2.8c-1.5,0-3.1,0.2-4.6,0.5c-1.7,0.3-2.8,0.8-3.8,1.2l-1.3,0.5L438.8,474.6L438.8,474.6
				z"/>
			<path class="st1" d="M462.6,448h2.1l8.3,26.4h2.3l8.4-26.4h2.1L473,489.1h-2.1l4.1-13h-3.5L462.6,448z"/>
		</g>
		<path class="st1" d="M744.6,431.4h26.1c2.3,0,3.8,1.5,3.8,3.8v22.1c0,2.3-1.5,3.8-3.8,3.8h-22.1c-2.3,0-3.8-1.5-3.8-3.8V439h-14.5
			v18.3c0,9.9,8.4,18.3,18.3,18.3h22.1c9.9,0,18.3-8.4,18.3-18.3v-22.1c0-9.9-8.4-18.3-18.3-18.3h-26.1V431.4L744.6,431.4z"/>
		<path class="st1" d="M551,416.8c-9.9,0-18.3,8.4-18.3,18.3v40.4c9.4,0,14.5-7.6,14.5-14.5V435c0-2.3,1.5-3.8,3.8-3.8h24.1v-14.5
			L551,416.8L551,416.8z"/>
		<path class="st1" d="M635.7,403.3c0-7.3-5.8-13.5-14.5-13.5v67.5c0,2.3-1.5,3.8-3.8,3.8h-17.3c-2.3,0-3.8-1.5-3.8-3.8v-22.1
			c0-2.3,1.5-4,3.8-4h14.5v-14.5h-14.5c-9.9,0-18.3,8.4-18.3,18.3v22.1c0,9.9,8.4,18.3,18.3,18.3h17.3c9.9,0,18.3-8.4,18.3-18.3
			V403.3L635.7,403.3z"/>
		<polygon class="st1" points="526,395.7 511.4,395.7 511.4,410.1 526,410.1 		"/>
		<path class="st1" d="M526,416.8h-14.5v44.7c0,6.9,5.1,14,14.4,14L526,416.8L526,416.8z"/>
		<path class="st1" d="M721.5,416.8c-2.3,0-3.8-1.5-3.8-3.8V389h-14.5v72.1c0,6.8,5.1,14.4,14.5,14.5l0,0v-17.3l0,0v-23.1l0,0
			c0-2.3,1.7-3.8,3.8-3.8h9.6v-14.5H721.5L721.5,416.8z"/>
		<path class="st1" d="M660.8,461.1c-2.3,0-3.8-1.5-3.8-3.8v-22.1c0-2.3,1.5-3.8,3.8-3.8h16.3c2.3,0,3.8,1.5,3.8,3.8
			c0,0,0,2.3,0,3.8c-2.3,0-17.3,0-17.3,0v14.5h25.1c3.8,0,6.8-3,6.8-6.8v-11.6c0-9.9-8.4-18.3-18.3-18.3h-16.3
			c-9.9,0-18.3,8.4-18.3,18.3v22.1c0,9.9,8.4,18.3,18.3,18.3h21.1c6.8,0,13.5-5.1,13.5-14.5H660.8L660.8,461.1z"/>
		<polygon class="st1" points="752.4,439 752.4,453.5 766.8,453.5 766.8,439 		"/>
		<polygon class="st1" points="557.6,461.1 557.6,475.6 572.2,475.6 572.2,461.1 		"/>
	</g>
</g>
</svg>
